<?xml version="1.0" encoding="UTF-8" standalone="no"?>
<!-- Created with Inkscape (http://www.inkscape.org/) -->

<svg
   xmlns:dc="http://purl.org/dc/elements/1.1/"
   xmlns:cc="http://creativecommons.org/ns#"
   xmlns:rdf="http://www.w3.org/1999/02/22-rdf-syntax-ns#"
   xmlns:svg="http://www.w3.org/2000/svg"
   xmlns="http://www.w3.org/2000/svg"
   xmlns:sodipodi="http://sodipodi.sourceforge.net/DTD/sodipodi-0.dtd"
   xmlns:inkscape="http://www.inkscape.org/namespaces/inkscape"
   width="750"
   height="300"
   viewBox="0 0 750.00001 300"
   id="svg2"
   version="1.1"
   inkscape:version="0.91 r13725"
   sodipodi:docname="explenation.svg">
  <defs
     id="defs4" />
  <sodipodi:namedview
     id="base"
     pagecolor="#ffffff"
     bordercolor="#666666"
     borderopacity="1.0"
     inkscape:pageopacity="0.0"
     inkscape:pageshadow="2"
     inkscape:zoom="1.4"
     inkscape:cx="231.18579"
     inkscape:cy="211.21706"
     inkscape:document-units="px"
     inkscape:current-layer="layer1"
     showgrid="false"
     units="px"
     inkscape:window-width="1920"
     inkscape:window-height="1056"
     inkscape:window-x="1366"
     inkscape:window-y="24"
     inkscape:window-maximized="1" />
  <metadata
     id="metadata7">
    <rdf:RDF>
      <cc:Work
         rdf:about="">
        <dc:format>image/svg+xml</dc:format>
        <dc:type
           rdf:resource="http://purl.org/dc/dcmitype/StillImage" />
        <dc:title></dc:title>
      </cc:Work>
    </rdf:RDF>
  </metadata>
  <g
     inkscape:label="Layer 1"
     inkscape:groupmode="layer"
     id="layer1"
     transform="translate(0,-752.36216)">
    <g
       id="g4164"
       transform="matrix(1.0536854,0,0,1.1738812,-33.607286,-163.83733)"
       style="opacity:0.581">
      <path
         inkscape:connector-curvature="0"
         id="path4146"
         d="m 359.6143,856.89764 c -3.08958,-2.81158 -7.65671,-2.64667 -11.61675,-1.51523 -15.31557,4.37588 -17.69547,13.34781 -22.72843,26.76904 -1.83239,4.88638 -3.51462,10.39738 -4.04061,15.65737 -3.12862,31.28618 27.51618,49.52138 55.55839,46.97209 5.65451,-0.51405 10.85981,-3.28322 16.16244,-5.05076 6.7189,-2.23964 16.34592,-6.19836 20.20305,-12.62691 1.08509,-1.80848 1.20802,-4.16558 2.0203,-6.06092 8.56313,-19.98062 -2.2738,-41.73264 -18.68782,-54.04316 -4.19417,-3.14562 -7.97491,-6.79195 -13.13198,-8.08122 -1.83162,-0.4579 -3.21915,-2.57255 -5.05077,-3.03046 -9.80513,-2.45128 -17.65162,-4.30617 -27.27411,0.50508"
         style="fill:#000000;fill-rule:evenodd;stroke:#000000;stroke-width:1px;stroke-linecap:butt;stroke-linejoin:miter;stroke-opacity:1" />
      <path
         inkscape:connector-curvature="0"
         id="path4156"
         d="m 354.603,855.06674 c -0.0975,0.0394 -0.1966,0.0287 -0.29989,0.0631 -0.005,0.002 0.002,0.0111 0,0.0158 -0.005,0.0105 -0.0206,0.0114 -0.0316,0.0158 -0.0612,0.0245 -0.151,-0.0128 -0.21308,0.008 -0.0293,0.01 -0.0929,0.0219 -0.11049,0.0395 -0.0104,0.0104 -0.30882,0.0168 -0.33935,0.0473 -0.0507,0.0507 -0.22261,0.10737 -0.29199,0.14206 -0.0263,0.0131 -0.0175,-0.009 -0.0395,0 -0.0915,0.0366 0.0115,-0.004 -0.0237,0.0316 -0.007,0.007 -0.0476,0.003 -0.0552,0.008 -0.0364,0.0218 -0.0784,0.0589 -0.11838,0.0789 -0.0368,0.0184 -0.023,-0.0138 -0.0552,0 -0.0385,0.0165 -0.0445,0.038 -0.0789,0.0553 -0.0311,0.0156 -0.0858,0.0153 -0.11837,0.0316 -0.0184,0.009 -0.0283,0.0318 -0.0474,0.0395 -0.02,0.008 -0.061,0.005 -0.0789,0.0158 -0.0585,0.0351 -0.1263,0.0671 -0.1973,0.0789 -0.0104,0.002 -0.10193,0.0251 -0.11048,0.0316 -0.0438,0.0328 0.0175,0.0356 -0.0474,0.0474 -0.0181,0.003 -0.0383,-0.007 -0.0552,0 -0.007,0.003 0.007,0.0206 0,0.0237 -0.0169,0.007 -0.0378,-0.006 -0.0552,0 -0.009,0.003 -0.008,0.0188 -0.0158,0.0237 -0.0331,0.0198 -0.10046,0.006 -0.13417,0.0316 -0.008,0.006 -0.008,0.0188 -0.0158,0.0237 -0.0273,0.0164 -0.0847,0.005 -0.11048,0.0158 -0.007,0.003 0.005,0.0175 0,0.0237 -0.0437,0.0546 -0.0174,-0.0147 -0.0631,0.0158 -0.01,0.007 -0.007,0.0233 -0.0158,0.0316 -0.013,0.013 -0.0383,-0.007 -0.0553,0 -0.009,0.004 -0.007,0.0194 -0.0158,0.0237 -0.0141,0.007 -0.0362,-0.0112 -0.0473,0 -0.004,0.004 0.004,0.0129 0,0.0158 -0.0187,0.0125 -0.0596,-0.002 -0.0789,0.008 -0.0118,0.006 -0.0119,0.0257 -0.0237,0.0316 -0.0205,0.0103 -0.0718,-0.015 -0.0868,0 -0.0414,0.0414 -0.0827,0.0204 -0.12627,0.0552 -0.0304,0.0243 -0.0414,0.004 -0.071,0.0158 -0.0241,0.01 -0.16507,0.0954 -0.12627,0.13416 0.0472,0.0472 0.0464,0.14112 0.0947,0.18941 0.005,0.005 0.0421,0.0105 0.0473,0.0158 0.007,0.007 0.0615,0.0857 0.0631,0.0868 0.007,0.004 0.0175,-0.005 0.0237,0 0.009,0.007 0.007,0.0241 0.0158,0.0316 0.021,0.0172 0.0485,0.0244 0.071,0.0395 0.0483,0.0322 0.0851,0.0857 0.13417,0.11837 0.0229,0.0152 0.0561,0.008 0.0789,0.0237 0.0716,0.0477 0.12649,0.122 0.20519,0.16573 0.0917,0.051 0.17822,0.10406 0.26043,0.16572 0.008,0.006 0.0218,-0.004 0.0316,0 0.0462,0.0185 0.0863,0.0615 0.13416,0.071 0.0329,0.007 0.0646,0.004 0.0947,0.0158 0.0571,0.0228 0.10842,0.0718 0.16573,0.0947 0.0306,0.0122 0.0738,0.0378 0.10259,0.0474 0.0125,0.004 0.0277,-0.006 0.0395,0 0.0283,0.0141 0.0546,0.0456 0.0868,0.0552 0.0474,0.0142 0.0339,-0.0202 0.0789,0.0158 0.004,0.003 -0.004,0.0129 0,0.0158 0.016,0.0107 0.0656,-0.0133 0.0789,0 0.006,0.006 0.0305,0.0286 0.0395,0.0316 0.0739,0.0246 0.19057,0.008 0.26832,0.008 0.11403,0 0.32438,0.0291 0.42616,0 0.0204,-0.006 0.0349,-0.0257 0.0552,-0.0316 0.0585,-0.0167 0.12973,0.0128 0.1894,0 0.0392,-0.008 0.0713,-0.039 0.11049,-0.0473 0.0327,-0.007 0.0733,-10e-4 0.10259,-0.0158 0.0399,-0.02 0.13543,-0.0965 0.1973,-0.0552 0.0362,0.0242 0.0739,0.0624 0.11048,0.0868 0.0117,0.008 0.0156,-1.9e-4 0.0237,0.008 0.002,0.002 -0.0722,0.0226 -0.13416,0.0474 -0.0245,0.01 -0.0567,10e-4 -0.0789,0.0158 -0.0544,0.0363 -0.004,0.0789 -0.0395,0.0789"
         style="fill:none;fill-rule:evenodd;stroke:#000000;stroke-width:1px;stroke-linecap:butt;stroke-linejoin:miter;stroke-opacity:1" />
      <path
         inkscape:connector-curvature="0"
         id="path4158"
         d="m 356.47322,854.86216 c -0.53885,-0.15532 -1.30072,-0.11161 -1.94197,-0.11161 -0.097,0 -0.4586,-0.0578 -0.53571,0 -0.0215,0.0161 -0.0232,0.0509 -0.0446,0.067 -0.0667,0.05 -0.26883,4.8e-4 -0.35714,0.0446 -0.13058,0.0653 -0.47746,0 -0.625,0 -0.17292,0 -0.76282,0.2271 -0.87053,0.33482 -0.0149,0.0149 -0.0744,-0.0149 -0.0893,0 -0.11659,0.11659 -0.3046,0.23043 -0.46875,0.3125 -0.0462,0.0231 -0.0767,0.13879 -0.11161,0.15625 -0.0426,0.0213 -0.043,-0.0256 -0.067,0.0223 -0.024,0.048 -0.1094,0.1072 -0.13393,0.15625 -0.19477,0.38954 -0.26786,0.39002 -0.26786,0.87054 0,0.0248 -0.0158,0.14046 0,0.15625 0.0385,0.0385 0.0953,0.0253 0.13393,0.0446 0.0661,0.033 0.30124,0.4408 0.40179,0.49107 0.0456,0.0228 0.30192,0.19032 0.33482,0.22322 0.0366,0.0366 0.067,0.12948 0.11161,0.15625 0.1092,0.0655 0.2535,0.1505 0.37946,0.20089 0.0842,0.0337 0.008,0.0934 0.0893,0.13393 0.19636,0.0982 0.46502,0.28041 0.66964,0.35714 0.23875,0.0895 0.52772,0.14239 0.78125,0.20089 0.43466,0.10031 -0.0737,0.0195 0.20089,0.13393 0.40594,0.16914 0.8541,0.028 1.27232,0.11161 0.0623,0.0125 0.11624,0.0545 0.17857,0.067 0.2361,0.0472 0.50052,-0.0472 0.73661,0 0.68394,0.13679 1.43726,0.067 2.14286,0.067 0.28898,0 1.54951,0.11019 1.78571,-0.067 0.0847,-0.0635 0.34046,0.008 0.44643,-0.0446 0.15034,-0.0752 0.52509,0.0165 0.69197,-0.067 0.40645,-0.20323 0.4241,-0.47521 0.4241,-1.00447 0,-0.0739 0.0387,-0.30551 0,-0.35714 -0.026,-0.0347 -0.0875,-0.0309 -0.1116,-0.067 -0.0372,-0.0558 0.0248,-0.062 0,-0.1116 -0.0105,-0.0211 -0.0539,-0.003 -0.067,-0.0223 -0.0165,-0.0248 0.0133,-0.0627 0,-0.0893 -0.0141,-0.0282 -0.17959,-0.26177 -0.20089,-0.29018 -0.11272,-0.1503 -0.0175,0.033 -0.13393,-0.0446 -0.0316,-0.0211 0.005,-0.0848 -0.0223,-0.11161 -0.10805,-0.10805 0.0168,0.0484 -0.0893,-0.0223 -0.11861,-0.0791 0.0579,-0.009 -0.0223,-0.0893 -0.057,-0.057 -0.18435,-0.0951 -0.24553,-0.15625 -0.17477,-0.17476 -0.36999,-0.42257 -0.58036,-0.58035 -0.0303,-0.0228 -0.0813,4.4e-4 -0.11161,-0.0223 -0.0937,-0.0703 -0.19741,-0.21625 -0.24553,-0.3125 -0.0671,-0.13425 -0.26416,-0.0856 -0.35715,-0.17858 -0.005,-0.005 0,-0.0149 0,-0.0223 0,-0.0149 0.0105,-0.0341 0,-0.0446 -0.0343,-0.0343 -0.15402,-0.0658 -0.20089,-0.0893 -0.0554,-0.0277 -0.16862,-0.16243 -0.24554,-0.20089 -0.19618,-0.0981 -0.60191,-0.15625 -0.87053,-0.15625"
         style="fill:#000000;fill-rule:evenodd;stroke:#000000;stroke-width:1px;stroke-linecap:butt;stroke-linejoin:miter;stroke-opacity:1" />
      <path
         inkscape:connector-curvature="0"
         id="path4160"
         d="m 356.20536,863.36662 -2.63393,31.85268"
         style="fill:none;fill-rule:evenodd;stroke:#000000;stroke-width:1px;stroke-linecap:butt;stroke-linejoin:miter;stroke-opacity:1" />
    </g>
    <path
       style="fill:none;fill-rule:evenodd;stroke:#000000;stroke-width:2.04167128px;stroke-linecap:butt;stroke-linejoin:miter;stroke-opacity:1"
       d="m 151.7013,893.28417 403.19911,0"
       id="path5137"
       inkscape:connector-curvature="0" />
    <path
       style="fill:none;fill-rule:evenodd;stroke:#000000;stroke-width:2.04167128px;stroke-linecap:butt;stroke-linejoin:miter;stroke-opacity:1"
       d="M 553.56534,864.99949 154.06753,919.50647"
       id="path5137-4"
       inkscape:connector-curvature="0" />
    <path
       inkscape:connector-curvature="0"
       id="path5154"
       d="M 547.29515,835.61052 160.33773,948.89544"
       style="fill:none;fill-rule:evenodd;stroke:#000000;stroke-width:2.04167128px;stroke-linecap:butt;stroke-linejoin:miter;stroke-opacity:1" />
    <path
       style="fill:none;fill-rule:evenodd;stroke:#000000;stroke-width:2.04167128px;stroke-linecap:butt;stroke-linejoin:miter;stroke-opacity:1"
       d="M 533.91509,801.66131 173.71778,982.84465"
       id="path5156"
       inkscape:connector-curvature="0" />
    <path
       inkscape:connector-curvature="0"
       id="path5158"
       d="M 191.81789,1012.2482 515.81498,772.25779"
       style="fill:none;fill-rule:evenodd;stroke:#000000;stroke-width:2.04167128px;stroke-linecap:butt;stroke-linejoin:miter;stroke-opacity:1" />
    <path
       style="fill:none;fill-rule:evenodd;stroke:#000000;stroke-width:2;stroke-linecap:butt;stroke-linejoin:miter;stroke-opacity:1;stroke-miterlimit:4;stroke-dasharray:none"
       d="m 381.33259,902.35451 c 0.26675,2.53745 2.16531,4.55057 2.52538,7.07106 1.20136,8.40951 3.3398,16.81264 4.54568,25.25382 0.31778,2.22446 1.51523,11.49951 1.51523,9.59645"
       id="path5166"
       inkscape:connector-curvature="0" />
    <path
       style="fill:none;fill-rule:evenodd;stroke:#000000;stroke-width:2;stroke-linecap:butt;stroke-linejoin:miter;stroke-opacity:1;stroke-miterlimit:4;stroke-dasharray:none"
       d="m 375.27167,912.45603 c -7.415,14.83001 2.2645,-4.97037 5.55584,-8.08122 1.7816,0.58801 -1.65124,-1.88429 -1.01015,-2.52538 4.60239,-4.60239 15.46758,9.09137 17.67767,9.09137"
       id="path5168"
       inkscape:connector-curvature="0" />
    <path
       style="fill:none;fill-rule:evenodd;stroke:#000000;stroke-width:2;stroke-linecap:butt;stroke-linejoin:miter;stroke-opacity:1;stroke-miterlimit:4;stroke-dasharray:none"
       d="m 371.23106,951.34691 c 0.80536,5.01328 -1.24083,12.43995 0,16.16244"
       id="path5170"
       inkscape:connector-curvature="0" />
    <path
       style="fill:none;fill-rule:evenodd;stroke:#000000;stroke-width:2;stroke-linecap:butt;stroke-linejoin:miter;stroke-opacity:1;stroke-miterlimit:4;stroke-dasharray:none"
       d="m 371.73614,962.45858 c 6.40933,-11.99561 7.57614,0.44576 7.57614,6.06092"
       id="path5172"
       inkscape:connector-curvature="0" />
    <path
       style="fill:none;fill-rule:evenodd;stroke:#000000;stroke-width:2;stroke-linecap:butt;stroke-linejoin:miter;stroke-opacity:1;stroke-miterlimit:4;stroke-dasharray:none"
       d="m 383.35289,957.9129 c -0.0934,3.16322 0.50508,5.93327 0.50508,9.09137"
       id="path5174"
       inkscape:connector-curvature="0" />
    <path
       style="fill:none;fill-rule:evenodd;stroke:#000000;stroke-width:2;stroke-linecap:butt;stroke-linejoin:miter;stroke-opacity:1;stroke-miterlimit:4;stroke-dasharray:none"
       d="m 382.84781,951.85198 c -3.2812,3.45136 3.15538,4.20717 0,0 z"
       id="path5178"
       inkscape:connector-curvature="0" />
    <path
       style="fill:none;fill-rule:evenodd;stroke:#000000;stroke-width:2;stroke-linecap:butt;stroke-linejoin:miter;stroke-opacity:1;stroke-miterlimit:4;stroke-dasharray:none"
       d="m 387.89858,959.42813 c -5.28267,5.12673 5.03589,13.17659 7.57614,5.55583 2.12629,-6.37886 -3.25493,-9.87705 -7.57614,-5.55583 z"
       id="path5180"
       inkscape:connector-curvature="0" />
    <path
       style="fill:none;fill-rule:evenodd;stroke:#000000;stroke-width:2;stroke-linecap:butt;stroke-linejoin:miter;stroke-opacity:1;stroke-miterlimit:4;stroke-dasharray:none"
       d="m 395.9798,959.9332 c -3.59829,2.82778 2.9689,17.23415 1.51523,18.68782 -0.50505,0.50505 -4.33116,0 -5.05077,0 -1.79095,0 -4.76879,-0.2231 -6.06091,-1.51522"
       id="path5182"
       inkscape:connector-curvature="0" />
    <path
       style="fill:none;fill-rule:evenodd;stroke:#000000;stroke-width:2;stroke-linecap:butt;stroke-linejoin:miter;stroke-opacity:1;stroke-miterlimit:4;stroke-dasharray:none"
       d="m 400.52548,949.3266 c -1.09344,6.08152 1.01016,12.73617 1.01016,18.68782 0,0.33672 0.33671,1.01015 0,1.01015 -1.46949,0 2.05493,-10.62391 4.04061,-11.61675 4.31482,-2.15741 4.13944,9.28905 5.05076,11.11168"
       id="path5184"
       inkscape:connector-curvature="0" />
    <path
       style="fill:none;fill-rule:evenodd;stroke:#000000;stroke-width:2;stroke-linecap:butt;stroke-linejoin:miter;stroke-opacity:1;stroke-miterlimit:4;stroke-dasharray:none"
       d="m 377.79705,985.69209 c -5.93176,1.89189 -0.97702,12.86288 4.54569,10.10153 1.35896,-0.67948 1.64644,-2.41396 2.0203,-3.53554 2.30693,-6.92078 -10.28367,-7.94043 -8.58629,-4.54568"
       id="path5186"
       inkscape:connector-curvature="0" />
    <path
       style="fill:none;fill-rule:evenodd;stroke:#000000;stroke-width:2;stroke-linecap:butt;stroke-linejoin:miter;stroke-opacity:1;stroke-miterlimit:4;stroke-dasharray:none"
       d="m 382.84781,976.09564 c -0.32501,-1.80848 0,22.86159 0,18.18275"
       id="path5188"
       inkscape:connector-curvature="0" />
    <path
       style="fill:none;fill-rule:evenodd;stroke:#000000;stroke-width:2;stroke-linecap:butt;stroke-linejoin:miter;stroke-opacity:1;stroke-miterlimit:4;stroke-dasharray:none"
       d="m 387.89858,991.75301 c 1.40679,0.32651 4.13762,1.3212 5.05076,-0.50508 1.79233,-3.58466 -4.16655,-4.41975 -6.06091,-2.52538 -1.17084,1.17083 1.36312,1.97154 1.01015,3.03046 -0.21952,0.65854 -1.32615,-0.50508 -2.02031,-0.50508 -0.69416,0 1.85195,-0.16836 2.02031,0.50508 0.20416,0.81666 -1.2026,1.23872 -1.51523,2.0203 -0.96385,2.40963 7.36888,4.24787 9.09137,2.52538"
       id="path5190"
       inkscape:connector-curvature="0" />
    <path
       style="fill:none;fill-rule:evenodd;stroke:#000000;stroke-width:2;stroke-linecap:butt;stroke-linejoin:miter;stroke-opacity:1;stroke-miterlimit:4;stroke-dasharray:none"
       d="m 396.48487,988.21747 c 2.21433,0.0197 -1.20426,6.56599 1.01016,6.56599 0.16817,0 0.70509,-5.25078 3.03045,-7.57614 1.74187,-1.74186 2.52539,4.84332 2.52539,5.55584 0,0.84179 0,1.68359 0,2.52538"
       id="path5192"
       inkscape:connector-curvature="0" />
    <path
       style="fill:none;fill-rule:evenodd;stroke:#000000;stroke-width:2;stroke-linecap:butt;stroke-linejoin:miter;stroke-opacity:1;stroke-miterlimit:4;stroke-dasharray:none"
       d="m 409.61686,988.21747 c -0.67344,-0.33671 -1.28986,-0.82754 -2.02031,-1.01015 -0.5165,-0.12912 -0.50507,0.98283 -0.50507,1.51523 0,3.67587 10.81107,7.57614 -1.01016,7.57614"
       id="path5194"
       inkscape:connector-curvature="0" />
    <path
       style="fill:none;fill-rule:evenodd;stroke:#000000;stroke-width:2;stroke-linecap:butt;stroke-linejoin:miter;stroke-opacity:1;stroke-miterlimit:4;stroke-dasharray:none"
       d="m 414.16254,986.70224 c 1.15273,3.35148 0.22056,9.66041 -0.50507,11.11168"
       id="path5196"
       inkscape:connector-curvature="0" />
    <path
       style="fill:none;fill-rule:evenodd;stroke:#000000;stroke-width:2;stroke-linecap:butt;stroke-linejoin:miter;stroke-opacity:1;stroke-miterlimit:4;stroke-dasharray:none"
       d="m 413.65747,982.15656 0.50507,-1.01015"
       id="path5198"
       inkscape:connector-curvature="0" />
    <path
       style="fill:none;fill-rule:evenodd;stroke:#000000;stroke-width:2;stroke-linecap:butt;stroke-linejoin:miter;stroke-opacity:1;stroke-miterlimit:4;stroke-dasharray:none"
       d="m 419.21331,977.1058 c 0.19547,5.83938 1.01015,12.32498 1.01015,18.18274 0,0.10829 1.0308,5.55586 0.50508,5.55586 -0.67344,0 0,-1.34689 0,-2.02032"
       id="path5200"
       inkscape:connector-curvature="0" />
    <path
       style="fill:none;fill-rule:evenodd;stroke:#000000;stroke-width:2;stroke-linecap:butt;stroke-linejoin:miter;stroke-opacity:1;stroke-miterlimit:4;stroke-dasharray:none"
       d="m 417.193,986.70224 c 2.70206,-0.9534 4.68837,-2.52538 7.57615,-2.52538"
       id="path5202"
       inkscape:connector-curvature="0" />
    <path
       style="fill:none;fill-rule:evenodd;stroke:#000000;stroke-width:2;stroke-linecap:butt;stroke-linejoin:miter;stroke-opacity:1;stroke-miterlimit:4;stroke-dasharray:none"
       d="m 426.78945,987.7124 c -1.95023,3.38991 -1.04402,7.30667 2.52538,9.09137 4.75889,2.37945 5.60467,-10.10153 5.05076,-10.10153 -6.06111,0 9.08191,24.24366 -3.03045,24.24366 -2.69843,0 -6.53529,-1.9896 -8.08122,-3.5355"
       id="path5204"
       inkscape:connector-curvature="0" />
    <path
       style="fill:none;fill-rule:evenodd;stroke:#000000;stroke-width:2;stroke-linecap:butt;stroke-linejoin:miter;stroke-opacity:1;stroke-miterlimit:4;stroke-dasharray:none"
       d="m 539.92654,902.85958 5.55583,15.65737"
       id="path5206"
       inkscape:connector-curvature="0" />
    <path
       style="fill:none;fill-rule:evenodd;stroke:#000000;stroke-width:2;stroke-linecap:butt;stroke-linejoin:miter;stroke-opacity:1;stroke-miterlimit:4;stroke-dasharray:none"
       d="m 535.38085,908.9205 c 0,1.42187 1.08673,-6.34026 2.52538,-8.08122 4.99653,1.16422 8.47063,3.92494 12.12183,7.57614"
       id="path5208"
       inkscape:connector-curvature="0" />
    <path
       style="fill:none;fill-rule:evenodd;stroke:#000000;stroke-width:2;stroke-linecap:butt;stroke-linejoin:miter;stroke-opacity:1;stroke-miterlimit:4;stroke-dasharray:none"
       d="m 547.50268,924.57786 c -0.80655,4.86129 -0.10954,14.93322 1.01015,17.1726"
       id="path5210"
       inkscape:connector-curvature="0" />
    <path
       style="fill:none;fill-rule:evenodd;stroke:#000000;stroke-width:2;stroke-linecap:butt;stroke-linejoin:miter;stroke-opacity:1;stroke-miterlimit:4;stroke-dasharray:none"
       d="m 551.54329,934.17431 c -2.31329,3.23142 -0.50508,1.10888 -0.50508,3.03046 0,3.335 5.38925,4.5404 6.566,1.01015 1.17168,-3.51504 -4.53854,-8.60773 -6.06092,-4.04061 z"
       id="path5212"
       inkscape:connector-curvature="0" />
    <path
       style="fill:none;fill-rule:evenodd;stroke:#000000;stroke-width:2;stroke-linecap:butt;stroke-linejoin:miter;stroke-opacity:1;stroke-miterlimit:4;stroke-dasharray:none"
       d="m 562.65497,931.14385 c -1.04354,1.23862 -1.63053,11.16933 1.51523,9.59645 0.87458,-0.43729 1.6661,-1.81698 2.0203,-2.52538 0.0925,-0.185 -0.07,-2.52538 0,-2.52538 0.8418,0 -0.59524,1.93014 0,2.52538 0.16765,0.16765 2.85042,1.19019 3.53554,0.50508 1.69653,-1.69654 1.42439,-6.86395 -1.01016,-8.08122"
       id="path5220"
       inkscape:connector-curvature="0" />
    <path
       style="fill:none;fill-rule:evenodd;stroke:#000000;stroke-width:2;stroke-linecap:butt;stroke-linejoin:miter;stroke-opacity:1;stroke-miterlimit:4;stroke-dasharray:none"
       d="m 548.00776,955.38752 c -4.81261,14.03215 10.2278,7.51302 6.56599,2.0203 -1.28727,-1.93089 -8.03527,-6.42812 -6.56599,-2.0203 z"
       id="path5222"
       inkscape:connector-curvature="0" />
    <path
       style="fill:none;fill-rule:evenodd;stroke:#000000;stroke-width:2;stroke-linecap:butt;stroke-linejoin:miter;stroke-opacity:1;stroke-miterlimit:4;stroke-dasharray:none"
       d="m 554.06867,944.27584 c -0.5419,3.45488 0.795,17.60289 1.51523,16.16244"
       id="path5224"
       inkscape:connector-curvature="0" />
    <path
       style="fill:none;fill-rule:evenodd;stroke:#000000;stroke-width:2;stroke-linecap:butt;stroke-linejoin:miter;stroke-opacity:1;stroke-miterlimit:4;stroke-dasharray:none"
       d="m 558.61436,957.40782 c 0.56098,0.29738 2.84155,1.89304 3.53553,0.50508 1.40698,-2.81396 -1.86334,-6.87993 -3.53553,-3.53554 -1.56425,3.1285 1.21612,11.91586 5.55584,7.57615"
       id="path5226"
       inkscape:connector-curvature="0" />
    <path
       style="fill:none;fill-rule:evenodd;stroke:#000000;stroke-width:2;stroke-linecap:butt;stroke-linejoin:miter;stroke-opacity:1;stroke-miterlimit:4;stroke-dasharray:none"
       d="m 567.70573,952.86213 c -1.39138,0.29839 -0.48785,8.5863 -0.50508,8.5863 -0.0614,0 2.98668,-9.87088 4.54569,-9.09137 2.08235,1.04117 1.01181,8.5896 2.02031,10.6066"
       id="path5228"
       inkscape:connector-curvature="0" />
    <path
       style="fill:none;fill-rule:evenodd;stroke:#000000;stroke-width:2;stroke-linecap:butt;stroke-linejoin:miter;stroke-opacity:1;stroke-miterlimit:4;stroke-dasharray:none"
       d="m 581.34279,952.35706 c -2.643,-0.76584 -4.84151,3.2397 -3.03046,5.05076 0.31375,0.31374 3.03064,0.25263 3.53554,0.50508 0.95085,0.47542 1.01015,2.06854 1.01015,3.03045 0,2.10838 -7.07107,0.84726 -7.07107,-1.51522"
       id="path5230"
       inkscape:connector-curvature="0" />
    <path
       style="fill:none;fill-rule:evenodd;stroke:#000000;stroke-width:2;stroke-linecap:butt;stroke-linejoin:miter;stroke-opacity:1;stroke-miterlimit:4;stroke-dasharray:none"
       d="m 586.39355,952.86213 c -1.36229,2.65542 0.19626,6.9585 0.50508,7.57615"
       id="path5232"
       inkscape:connector-curvature="0" />
    <path
       style="fill:none;fill-rule:evenodd;stroke:#000000;stroke-width:2;stroke-linecap:butt;stroke-linejoin:miter;stroke-opacity:1;stroke-miterlimit:4;stroke-dasharray:none"
       d="m 585.3834,948.31645 c -0.4703,-1.59081 -2.58955,-2.52538 -0.50508,-2.52538"
       id="path5234"
       inkscape:connector-curvature="0" />
    <path
       style="fill:none;fill-rule:evenodd;stroke:#000000;stroke-width:2;stroke-linecap:butt;stroke-linejoin:miter;stroke-opacity:1;stroke-miterlimit:4;stroke-dasharray:none"
       d="m 592.45447,942.25553 c -1.32406,6.48883 0,13.14527 0,19.69798"
       id="path5236"
       inkscape:connector-curvature="0" />
    <path
       style="fill:none;fill-rule:evenodd;stroke:#000000;stroke-width:2;stroke-linecap:butt;stroke-linejoin:miter;stroke-opacity:1;stroke-miterlimit:4;stroke-dasharray:none"
       d="m 589.42401,950.84183 c 2.68587,-1.08106 5.14937,-1.01015 8.08122,-1.01015"
       id="path5238"
       inkscape:connector-curvature="0" />
    <path
       style="fill:none;fill-rule:evenodd;stroke:#000000;stroke-width:2;stroke-linecap:butt;stroke-linejoin:miter;stroke-opacity:1;stroke-miterlimit:4;stroke-dasharray:none"
       d="m 599.02046,953.36721 c -1.23311,1.91248 -2.94544,6.6085 0,8.08122 3.05949,1.52974 8.75839,-3.19134 7.07107,-6.56599 -0.46461,-0.92921 -0.7286,-0.058 -1.01016,0.50508 -2.31564,4.63129 2.69622,12.28523 0.50508,16.66751 -1.54332,3.08665 -5.80698,2.27424 -7.57614,0.50508"
       id="path5240"
       inkscape:connector-curvature="0" />
    <path
       style="fill:none;fill-rule:evenodd;stroke:#000000;stroke-width:2;stroke-linecap:butt;stroke-linejoin:miter;stroke-opacity:1;stroke-miterlimit:4;stroke-dasharray:none"
       d="m 572.25142,890.73775 c -1.18351,3.40845 -7.07107,6.71347 -7.07107,1.51523 0,-5.60101 9.09103,6.56667 10.10152,4.54569"
       id="path5242"
       inkscape:connector-curvature="0" />
    <path
       style="fill:none;fill-rule:evenodd;stroke:#000000;stroke-width:2;stroke-linecap:butt;stroke-linejoin:miter;stroke-opacity:1;stroke-miterlimit:4;stroke-dasharray:none"
       d="m 579.32249,893.26313 c -7.01152,8.14872 9.0338,6.22711 4.54568,-0.50507 -0.98509,-1.47764 -3.59207,0.0283 -4.54568,0.50507 z"
       id="path5244"
       inkscape:connector-curvature="0" />
    <path
       style="fill:none;fill-rule:evenodd;stroke:#000000;stroke-width:2;stroke-linecap:butt;stroke-linejoin:miter;stroke-opacity:1;stroke-miterlimit:4;stroke-dasharray:none"
       d="m 568.71588,856.89764 c -0.59608,2.04045 -0.42864,3.92596 -1.51523,5.55584 -8.77298,13.15948 -8.89298,-5.96172 -3.03045,-3.03046 3.33463,1.66732 5.02583,7.07107 9.09137,7.07107"
       id="path5246"
       inkscape:connector-curvature="0" />
    <path
       style="fill:none;fill-rule:evenodd;stroke:#000000;stroke-width:2;stroke-linecap:butt;stroke-linejoin:miter;stroke-opacity:1;stroke-miterlimit:4;stroke-dasharray:none"
       d="m 577.30218,868.5144 c 2.93942,-10.18619 2.29155,-2.48797 4.04061,1.01015"
       id="path5248"
       inkscape:connector-curvature="0" />
    <path
       style="fill:none;fill-rule:evenodd;stroke:#000000;stroke-width:2;stroke-linecap:butt;stroke-linejoin:miter;stroke-opacity:1;stroke-miterlimit:4;stroke-dasharray:none"
       d="m 564.1702,833.66413 c -3.11749,0.20469 -2.25463,3.26479 -4.04061,5.05077 -8.43348,8.43347 -7.09432,-7.84031 -2.52538,-5.55584 3.43057,1.71528 5.866,6.72107 8.58629,8.08122"
       id="path5250"
       inkscape:connector-curvature="0" />
    <path
       style="fill:none;fill-rule:evenodd;stroke:#000000;stroke-width:2;stroke-linecap:butt;stroke-linejoin:miter;stroke-opacity:1;stroke-miterlimit:4;stroke-dasharray:none"
       d="m 571.24126,836.18952 c 14.99282,-1.76738 -6.43111,14.57977 6.566,8.08122"
       id="path5252"
       inkscape:connector-curvature="0" />
    <path
       style="fill:none;fill-rule:evenodd;stroke:#000000;stroke-width:2;stroke-linecap:butt;stroke-linejoin:miter;stroke-opacity:1;stroke-miterlimit:4;stroke-dasharray:none"
       d="m 551.03821,801.33925 c -1.26288,2.1611 -1.64102,4.67148 -3.03045,6.06092 -2.88408,2.88407 -7.04202,-3.56459 -4.54569,-6.06092 3.00048,-3.00048 8.54302,8.60794 11.61675,7.07107"
       id="path5254"
       inkscape:connector-curvature="0" />
    <path
       style="fill:none;fill-rule:evenodd;stroke:#000000;stroke-width:2;stroke-linecap:butt;stroke-linejoin:miter;stroke-opacity:1;stroke-miterlimit:4;stroke-dasharray:none"
       d="m 557.09913,804.36971 c 1.25997,-0.81381 1.92306,-1.46661 3.03046,-2.0203 1.11016,-0.55509 2.78889,2.50342 2.0203,4.04061 -0.2955,0.591 -2.77434,2.27642 -2.52538,2.52538 1.32453,1.32452 4.6413,0.19123 5.55584,2.0203 1.98631,3.97262 -5.20538,4.74154 -7.07107,1.01015"
       id="path5258"
       inkscape:connector-curvature="0" />
    <path
       style="fill:none;fill-rule:evenodd;stroke:#000000;stroke-width:2;stroke-linecap:butt;stroke-linejoin:miter;stroke-opacity:1;stroke-miterlimit:4;stroke-dasharray:none"
       d="m 532.35039,771.03468 c -11.24315,16.54104 -11.94596,-7.40028 -6.56599,-2.02031 2.69014,2.69014 6.15125,6.56599 9.59645,6.56599"
       id="path5260"
       inkscape:connector-curvature="0" />
    <path
       style="fill:none;fill-rule:evenodd;stroke:#000000;stroke-width:2;stroke-linecap:butt;stroke-linejoin:miter;stroke-opacity:1;stroke-miterlimit:4;stroke-dasharray:none"
       d="m 539.92654,771.03468 c -7.42621,8.8303 4.63719,3.62704 5.05076,4.04061 1.19641,1.19641 0.50507,3.35877 0.50507,5.05076"
       id="path5262"
       inkscape:connector-curvature="0" />
  </g>
</svg>
